<svg width="688" height="409" viewBox="0 0 688 409" fill="none" xmlns="http://www.w3.org/2000/svg">
<mask id="mask0_136_998" style="mask-type:luminance" maskUnits="userSpaceOnUse" x="0" y="0" width="688" height="409">
<path d="M687.82 0H0V408.8H687.82V0Z" fill="white"/>
</mask>
<g mask="url(#mask0_136_998)">
<path d="M109.075 161.1C103.205 165.17 95.2052 167.2 85.0752 167.2C62.0052 167.2 49.4752 155.73 47.4752 132.8L23.4752 136.8C25.7452 152.27 31.9752 164.27 42.1752 172.8C52.3752 181.34 66.2052 185.6 83.6752 185.6C94.8752 185.6 104.845 183.87 113.575 180.4C122.305 176.93 129.145 171.93 134.075 165.4C139.005 158.87 141.475 151.27 141.475 142.6C141.475 133.4 138.875 125.73 133.675 119.6C128.475 113.47 121.135 109.27 111.675 107L70.4752 97.3999C58.8752 94.5999 53.0752 89.2 53.0752 81.2C53.0752 75.33 55.9052 70.5999 61.5752 66.9999C67.2452 63.3999 74.5452 61.6 83.4752 61.6C102.145 61.6 112.275 70.6 113.875 88.6L139.075 84.3999C137.875 71.9999 132.445 62.0299 122.775 54.4999C113.105 46.9699 99.9452 43.2 83.2752 43.2C72.7452 43.2 63.4052 44.83 55.2752 48.1C47.1452 51.37 40.8052 56.03 36.2752 62.1C31.7452 68.17 29.4752 75.1299 29.4752 82.9999C29.4752 91.2699 31.8452 98.33 36.5752 104.2C41.3052 110.07 48.2052 114.07 57.2752 116.2L100.875 126.6C112.205 129.27 117.875 135.2 117.875 144.4C117.875 151.47 114.945 157.03 109.075 161.1Z" fill="white"/>
<path d="M216.665 138.8C216.665 147.2 214.595 154 210.465 159.2C206.335 164.4 200.795 167 193.865 167C188.795 167 184.795 165.53 181.865 162.6C178.935 159.67 177.465 155.67 177.465 150.6V84.3999H153.465V152.8C153.465 162.67 156.465 170.6 162.465 176.6C168.465 182.6 176.335 185.6 186.065 185.6C192.595 185.6 198.635 184.17 204.165 181.3C209.695 178.43 213.865 174.53 216.665 169.6H217.065V183.2H240.665V84.3999H216.665V138.8Z" fill="white"/>
<path d="M282.265 128.8C282.265 120.4 284.335 113.6 288.465 108.4C292.595 103.2 298.135 100.6 305.065 100.6C310.135 100.6 314.135 102.07 317.065 105C319.995 107.93 321.465 111.93 321.465 117V183.2H345.465V114.8C345.465 104.93 342.465 97 336.465 91C330.465 85 322.595 82 312.865 82C306.325 82 300.295 83.43 294.765 86.3C289.235 89.17 285.065 93.07 282.265 98H281.865V84.4H258.265V183.2H282.265V128.8Z" fill="white"/>
<path d="M378.465 179.2C384.995 183.47 392.335 185.6 400.465 185.6C407.265 185.6 413.435 184.17 418.965 181.3C424.495 178.43 428.665 174.6 431.465 169.8H431.865V183.2H455.465V45.5999H431.465V97.7999H431.065C428.265 92.9999 424.135 89.1699 418.665 86.2999C413.195 83.4299 407.125 81.9998 400.465 81.9998C392.335 81.9998 384.995 84.1298 378.465 88.3998C371.935 92.6698 366.795 98.7299 363.065 106.6C359.335 114.47 357.465 123.53 357.465 133.8C357.465 144.07 359.335 153.13 363.065 161C366.795 168.87 371.935 174.93 378.465 179.2ZM388.265 109.3C392.795 103.37 398.865 100.4 406.465 100.4C414.065 100.4 420.465 103.43 425.265 109.5C430.065 115.57 432.465 123.67 432.465 133.8C432.465 143.93 430.065 152.03 425.265 158.1C420.465 164.17 414.195 167.2 406.465 167.2C398.735 167.2 392.795 164.23 388.265 158.3C383.735 152.37 381.465 144.2 381.465 133.8C381.465 123.4 383.735 115.23 388.265 109.3Z" fill="white"/>
<path d="M541.465 169.8H541.865V183.2H565.465V84.4H541.465V97.8H541.065C538.265 93 534.135 89.17 528.665 86.3C523.195 83.43 517.125 82 510.465 82C502.335 82 494.995 84.13 488.465 88.4C481.935 92.67 476.795 98.73 473.065 106.6C469.335 114.47 467.465 123.53 467.465 133.8C467.465 144.07 469.335 153.13 473.065 161C476.795 168.87 481.935 174.93 488.465 179.2C494.995 183.47 502.335 185.6 510.465 185.6C517.265 185.6 523.435 184.17 528.965 181.3C534.495 178.43 538.665 174.6 541.465 169.8ZM498.265 158.3C493.735 152.37 491.465 144.2 491.465 133.8C491.465 123.4 493.735 115.23 498.265 109.3C502.795 103.37 508.865 100.4 516.465 100.4C524.065 100.4 530.465 103.43 535.265 109.5C540.065 115.57 542.465 123.67 542.465 133.8C542.465 143.93 540.065 152.03 535.265 158.1C530.465 164.17 524.195 167.2 516.465 167.2C508.735 167.2 502.795 164.23 498.265 158.3Z" fill="white"/>
<path d="M652.455 84.3999L615.655 153.4C612.585 159.4 609.785 165.47 607.255 171.6H606.855C606.985 169.2 607.055 163.2 607.055 153.6V84.3999H583.455V165.4C583.455 171.13 584.955 175.53 587.955 178.6C590.955 181.67 595.325 183.2 601.055 183.2L573.055 234.4H598.255L678.055 84.3999H652.455Z" fill="white"/>
<path d="M125.175 236.4C117.505 229.2 107.275 225.6 94.4752 225.6H30.6752V363.2H54.6752V304.8H94.4752C107.275 304.8 117.505 301.2 125.175 294C132.845 286.8 136.675 277.2 136.675 265.2C136.675 253.2 132.845 243.6 125.175 236.4ZM107.375 279.7C103.845 283.37 99.0052 285.2 92.8752 285.2H54.6752V245.2H92.8752C99.0052 245.2 103.845 247.03 107.375 250.7C110.905 254.37 112.675 259.2 112.675 265.2C112.675 271.2 110.905 276.03 107.375 279.7Z" fill="white"/>
<path d="M210.375 268.3C203.105 264.1 194.545 262 184.675 262C174.805 262 166.245 264.1 158.975 268.3C151.705 272.5 146.105 278.53 142.175 286.4C138.245 294.27 136.275 303.4 136.275 313.8C136.275 324.2 138.245 333.34 142.175 341.2C146.105 349.07 151.705 355.1 158.975 359.3C166.245 363.5 174.805 365.6 184.675 365.6C194.545 365.6 203.105 363.5 210.375 359.3C217.645 355.1 223.245 349.07 227.175 341.2C231.105 333.33 233.075 324.2 233.075 313.8C233.075 303.4 231.105 294.27 227.175 286.4C223.245 278.53 217.645 272.5 210.375 268.3ZM202.665 338.4C198.395 344.27 192.395 347.2 184.665 347.2C176.935 347.2 170.935 344.27 166.665 338.4C162.395 332.53 160.265 324.33 160.265 313.8C160.265 303.27 162.395 295.07 166.665 289.2C170.935 283.33 176.935 280.4 184.665 280.4C192.395 280.4 198.395 283.33 202.665 289.2C206.935 295.07 209.065 303.27 209.065 313.8C209.065 324.33 206.935 332.53 202.665 338.4Z" fill="white"/>
<path d="M393.865 264.4L357.665 332.4C354.865 337.87 352.465 343.8 350.465 350.2H350.065C350.465 344.73 350.665 339.67 350.665 335V282.4C350.665 276.53 349.125 272.07 346.065 269C342.995 265.93 338.535 264.4 332.665 264.4H311.665L275.465 332.4C272.935 337.33 270.535 343.27 268.265 350.2H267.865C268.265 344.6 268.465 339.53 268.465 335V264.4H245.065V345.2C245.065 350.93 246.635 355.37 249.765 358.5C252.895 361.63 257.335 363.2 263.065 363.2H283.265L319.265 295.4C321.665 290.87 324.395 284.87 327.465 277.4H327.865C327.465 283.8 327.265 288.87 327.265 292.6V345.2C327.265 350.93 328.835 355.37 331.965 358.5C335.095 361.63 339.535 363.2 345.265 363.2H365.465L418.065 264.4H393.865Z" fill="white"/>
<path d="M486.065 268.5C479.135 264.17 470.995 262 461.665 262C452.335 262 443.995 264.17 436.665 268.5C429.335 272.83 423.595 278.93 419.465 286.8C415.335 294.67 413.265 303.67 413.265 313.8C413.265 323.93 415.265 333.3 419.265 341.1C423.265 348.9 428.895 354.93 436.165 359.2C443.435 363.47 451.935 365.6 461.665 365.6C473.265 365.6 483.095 362.67 491.165 356.8C499.235 350.93 504.395 343.07 506.665 333.2L484.865 329.6C483.535 335.2 480.765 339.6 476.565 342.8C472.365 346 467.265 347.6 461.265 347.6C452.995 347.6 446.565 344.63 441.965 338.7C438.175 333.82 435.975 327.3 435.305 319.2H507.665V313.8C507.665 303.53 505.795 294.5 502.065 286.7C498.335 278.9 492.995 272.83 486.065 268.5ZM436.035 302.8C437.125 297.16 439.135 292.49 442.075 288.8C446.745 282.93 453.345 280 461.875 280C468.675 280 474.105 282 478.175 286C482.245 290 484.475 295.6 484.875 302.8H436.035Z" fill="white"/>
<path d="M554.865 266.9C549.665 270.17 545.935 275.13 543.665 281.8H543.265V264.4H519.665V363.2H543.665V309.8C543.665 301.67 546.035 295.34 550.765 290.8C555.495 286.27 562.135 284 570.665 284H576.465V262H572.665C565.995 262 560.065 263.63 554.865 266.9Z" fill="white"/>
</g>
</svg>
