<?xml version="1.0" encoding="UTF-8"?>
<svg id="Layer_2" data-name="Layer 2" xmlns="http://www.w3.org/2000/svg" viewBox="0 0 237.25 402.03">
  <defs>
    <style>
      .cls-1 {
        fill: #bffd11;
      }
    </style>
  </defs>
  <g id="Layer_1-2" data-name="Layer 1">
    <path class="cls-1" d="M234.2,67.14L119.28.83c-2.85-1.68-6.54-.72-8.26,2.21-.54.92-.82,1.97-.82,3.03v116.76L9.08,64.45c-1.38-.81-3-1.04-4.55-.64-1.55.4-2.85,1.38-3.71,2.84C.28,67.57,0,68.62,0,69.68v259.92c-.02,2.18,1.13,4.2,3.02,5.28l114.91,66.34c.95.56,1.99.82,3.02.82,2.07,0,4.09-1.08,5.24-3.03.53-.92.82-1.96.82-3.02v-116.8l101.16,58.39c2.85,1.68,6.54.72,8.26-2.21.54-.92.82-1.97.82-3.03V72.4c.01-2.18-1.16-4.2-3.05-5.26ZM220.43,215.59v98.12l-85-49.07,85-49.05ZM135.41,137.38l85-49.07v98.16l-85-49.09ZM127,122.83V24.68l85,49.07-85,49.08ZM212,201.01l-85,49.07v-98.14l85,49.07ZM110.21,279.21v98.12l-85-49.07,85-49.05ZM25.2,201l85-49.06v98.13l-85-49.07ZM16.79,186.45v-98.14l85,49.07-85,49.07ZM101.79,264.64l-85,49.06v-98.14l85,49.08Z"/>
  </g>
</svg>