<svg xmlns="http://www.w3.org/2000/svg" viewBox="0 0 1520.5 399.99"><defs><style>.cls-1{fill:#fff;}</style></defs><g id="Layer_2" data-name="Layer 2"><g id="Layer_1-2" data-name="Layer 1"><g id="Layer_2-2" data-name="Layer 2"><g id="Layer_1-2-2" data-name="Layer 1-2"><path class="cls-1" d="M477.09,100.63h19.1V300.18h-19.1V205.82H364.77v94.36h-19.1V100.63h19.1v87.52H477.09Z"/><path class="cls-1" d="M522.79,228.34c0-43.33,30.22-74.12,72.41-74.12s72.41,30.79,72.41,74.12-30.22,74.12-72.41,74.12S522.79,271.67,522.79,228.34Zm126,0c0-33.64-21.66-57.58-53.59-57.58s-53.59,23.94-53.59,57.58,21.66,57.59,53.59,57.59,53.59-23.95,53.59-57.59Z"/><path class="cls-1" d="M691.58,300.18V98.35h18V300.18Z"/><path class="cls-1" d="M733.06,228.34c0-43.33,30.22-74.12,72.41-74.12s72.41,30.79,72.41,74.12-30.22,74.12-72.41,74.12S733.06,271.67,733.06,228.34Zm126,0c0-33.64-21.67-57.58-53.6-57.58s-53.59,23.94-53.59,57.58,21.66,57.59,53.59,57.59S859.07,262,859.07,228.34Z"/><path class="cls-1" d="M1015.64,156.51h17.95V305.88c0,30.51-21.95,52.46-52.73,52.46H914.43V341.8h66.43c20.24,0,34.78-15.11,34.78-35.92V278.8c-6.56,14-27.09,23.66-49.89,23.66-45.61,0-69.85-33.07-69.85-74.12s24.24-74.12,69.85-74.12c20,0,40.76,10.55,49.89,25.38Zm2,71.83c0-34.78-20.24-57.58-51.31-57.58S915,193.56,915,228.34s20.24,57.59,51.32,57.59,51.31-22.81,51.31-57.59Z"/><path class="cls-1" d="M1140.29,173h-18.81c-31.64,0-39.91,29.08-39.91,65.85v61.29h-18V156.51h18V187c5.7-20,17.67-30.5,39.91-30.5h18.81Z"/><path class="cls-1" d="M1144.6,228.34c0-41.05,24.23-74.12,69.84-74.12,19.67,0,40.48,10.55,49.89,25.38V156.51h18V300.18h-18V277.09c-6.27,14-27.08,25.37-49.89,25.37C1168.83,302.46,1144.6,269.39,1144.6,228.34Zm121.73,0c0-34.78-20.24-57.58-51.32-57.58s-51.31,22.8-51.31,57.58,20.24,57.59,51.31,57.59,51.32-22.81,51.32-57.59Z"/><path class="cls-1" d="M1314.68,300.18V156.51h18v29.93c4.85-18.82,21.39-32.22,44.19-32.22,24,0,43.62,11.41,48.18,31.93,4.84-18.24,24.52-31.93,45.9-31.93,31.07,0,49.6,20.24,49.6,56.73v89.23h-18V214.94c0-26.22-12.83-44.18-34.49-44.18-26.23,0-41.63,18-41.63,44.18v85.24h-18V214.94c0-26.22-12.83-44.18-34.21-44.18-26.23,0-41.62,18-41.62,44.18v85.24Z"/><path class="cls-1" d="M235.25,331.33l0-259.94A5,5,0,0,0,232.7,67L117.77.68a5,5,0,0,0-6.89,1.85,4.94,4.94,0,0,0-.68,2.52V123.54L7.57,64.3A5,5,0,0,0,.68,66.15,4.94,4.94,0,0,0,0,68.67V328.6A5,5,0,0,0,2.52,333l114.92,66.34a5,5,0,0,0,6.89-1.85,5,5,0,0,0,.68-2.52V276.44L227.68,335.7a5,5,0,0,0,6.89-1.85A4.94,4.94,0,0,0,235.25,331.33ZM220.41,85.57l0,101.62-88-50.82ZM213,200l-88,50.8V149.2ZM110.2,250.79l-88-50.8,88-50.79Zm110.23-37.94V314.43l-88-50.8ZM102.79,136.37l-88,50.8V85.57Zm0,127.26-88,50.79V212.82ZM213,72.74l-88,50.81V21.94ZM22.21,327.25l88-50.78V378.05Z"/></g></g></g></g></svg>