<?xml version="1.0" encoding="UTF-8"?>
<svg id="Layer_2" data-name="Layer 2" xmlns="http://www.w3.org/2000/svg" viewBox="0 0 1502.73 402.03">
  <defs>
    <style>
      .cls-1 {
        fill: #bffd11;
      }
    </style>
  </defs>
  <g id="Layer_1-2" data-name="Layer 1">
    <g>
      <g>
        <polygon class="cls-1" points="475.06 186.16 373.1 186.16 373.1 101.82 346.12 101.82 346.12 300.62 373.1 300.62 373.1 210.3 475.06 210.3 475.06 300.62 502.04 300.62 502.04 101.82 475.06 101.82 475.06 186.16"/>
        <path class="cls-1" d="M631.6,164.72c-11.17-6.34-23.76-9.51-37.77-9.51s-26.6,3.17-37.77,9.51c-11.17,6.34-19.88,15.1-26.13,26.27-6.25,11.17-9.37,23.86-9.37,38.06s3.12,26.89,9.37,38.06c6.25,11.17,14.95,19.93,26.13,26.27,11.17,6.35,23.76,9.51,37.77,9.51s26.6-3.17,37.77-9.51c11.17-6.34,19.88-15.1,26.13-26.27,6.25-11.17,9.37-23.86,9.37-38.06s-3.12-26.88-9.37-38.06c-6.25-11.17-14.96-19.92-26.13-26.27ZM635.29,255.6c-3.98,7.86-9.56,13.96-16.76,18.32-7.2,4.36-15.43,6.53-24.71,6.53s-17.51-2.17-24.71-6.53c-7.2-4.35-12.78-10.46-16.76-18.32-3.98-7.85-5.96-16.71-5.96-26.55s1.99-18.7,5.96-26.55c3.98-7.85,9.56-13.96,16.76-18.32,7.19-4.35,15.43-6.53,24.71-6.53s17.51,2.18,24.71,6.53c7.19,4.36,12.78,10.46,16.76,18.32,3.98,7.86,5.96,16.71,5.96,26.55s-1.99,18.7-5.96,26.55Z"/>
        <rect class="cls-1" x="682.66" y="98.12" width="25.28" height="202.49"/>
        <path class="cls-1" d="M834.54,164.72c-11.17-6.34-23.76-9.51-37.77-9.51s-26.6,3.17-37.77,9.51c-11.17,6.34-19.88,15.1-26.13,26.27-6.25,11.17-9.37,23.86-9.37,38.06s3.12,26.89,9.37,38.06c6.25,11.17,14.95,19.93,26.13,26.27,11.17,6.35,23.76,9.51,37.77,9.51s26.6-3.17,37.77-9.51c11.17-6.34,19.88-15.1,26.13-26.27,6.25-11.17,9.37-23.86,9.37-38.06s-3.12-26.88-9.37-38.06c-6.25-11.17-14.96-19.92-26.13-26.27ZM838.23,255.6c-3.98,7.86-9.56,13.96-16.76,18.32-7.2,4.36-15.43,6.53-24.71,6.53s-17.51-2.17-24.71-6.53c-7.2-4.35-12.78-10.46-16.76-18.32-3.98-7.85-5.96-16.71-5.96-26.55s1.99-18.7,5.96-26.55c3.98-7.85,9.56-13.96,16.76-18.32,7.19-4.35,15.43-6.53,24.71-6.53s17.51,2.18,24.71,6.53c7.19,4.36,12.78,10.46,16.76,18.32,3.98,7.86,5.96,16.71,5.96,26.55s-1.99,18.7-5.96,26.55Z"/>
        <path class="cls-1" d="M997.84,177.64c-4.54-6.63-11.03-12.02-19.45-16.19-8.43-4.16-17.47-6.25-27.12-6.25-14.39,0-26.74,3.17-37.06,9.51-10.32,6.34-18.18,15.1-23.57,26.27-5.4,11.17-8.09,23.86-8.09,38.06s2.7,26.89,8.09,38.06c5.4,11.17,13.3,19.93,23.71,26.27,10.41,6.35,22.81,9.51,37.2,9.51,10.41,0,19.88-1.94,28.4-5.82,8.52-3.88,14.48-9.04,17.89-15.48v24.14c0,9.09-2.84,16.61-8.52,22.58-5.68,5.96-12.88,8.95-21.58,8.95h-66.17v21.3h68.44c10.22,0,19.36-2.18,27.41-6.53,8.04-4.36,14.29-10.42,18.74-18.18,4.45-7.77,6.67-16.66,6.67-26.7v-149.67h-24.99v20.16ZM987.33,266.54c-8.33,9.28-19.41,13.92-33.23,13.92s-24.9-4.64-33.23-13.92c-8.33-9.27-12.5-21.77-12.5-37.49s4.16-28.21,12.5-37.49c8.33-9.27,19.41-13.92,33.23-13.92s24.89,4.64,33.23,13.92c8.33,9.28,12.5,21.77,12.5,37.49s-4.17,28.21-12.5,37.49Z"/>
        <path class="cls-1" d="M1128.05,157.48h-17.89c-10.22,0-18.42,2.27-24.57,6.82-6.15,4.54-10.84,11.64-14.06,21.3v-28.12h-24.99v143.14h24.99v-63.9c0-17.79,2.74-31.76,8.24-41.89,5.49-10.13,14.77-15.19,27.83-15.19h20.45v-22.15Z"/>
        <path class="cls-1" d="M1242.41,177.64c-4.54-6.63-11.08-12.02-19.6-16.19-8.52-4.16-17.51-6.25-26.98-6.25-14.39,0-26.74,3.17-37.06,9.51-10.32,6.34-18.18,15.1-23.57,26.27-5.4,11.17-8.09,23.86-8.09,38.06s2.7,26.89,8.09,38.06c5.4,11.17,13.3,19.93,23.71,26.27,10.41,6.35,22.81,9.51,37.2,9.51,10.22,0,19.64-2.13,28.26-6.39,8.61-4.26,14.63-9.61,18.03-16.05v20.16h24.99v-143.14h-24.99v20.16ZM1231.91,266.39c-8.33,9.37-19.41,14.06-33.23,14.06s-24.9-4.69-33.23-14.06c-8.33-9.37-12.5-21.82-12.5-37.35s4.16-27.97,12.5-37.35c8.33-9.37,19.41-14.06,33.23-14.06s24.89,4.69,33.23,14.06c8.33,9.37,12.5,21.82,12.5,37.35s-4.17,27.97-12.5,37.35Z"/>
        <path class="cls-1" d="M1496.76,180.91c-3.98-8.24-9.75-14.58-17.32-19.03-7.58-4.45-16.47-6.67-26.7-6.67-10.79,0-20.5,2.84-29.11,8.52-8.62,5.68-14.44,12.78-17.47,21.3-2.65-9.46-8.09-16.8-16.33-22.01-8.24-5.21-18.32-7.81-30.25-7.81-10.42,0-19.41,2.61-26.98,7.81-7.58,5.21-12.88,12.26-15.9,21.16v-26.7h-24.99v143.14h24.99v-83.78c0-11.93,3.31-21.49,9.94-28.68,6.62-7.19,15.52-10.79,26.7-10.79,9.66,0,17.28,3.6,22.86,10.79,5.58,7.2,8.38,16.76,8.38,28.68v83.78h24.99v-83.78c0-11.93,3.31-21.49,9.94-28.68,6.63-7.19,15.52-10.79,26.7-10.79,9.66,0,17.28,3.6,22.86,10.79,5.58,7.2,8.38,16.76,8.38,28.68v83.78h25.28v-90.6c0-11.17-1.99-20.87-5.96-29.11Z"/>
      </g>
      <path class="cls-1" d="M234.2,67.14L119.28.83c-2.85-1.68-6.54-.72-8.26,2.21-.54.92-.82,1.97-.82,3.03v116.76L9.08,64.45c-1.38-.81-3-1.04-4.55-.64-1.55.4-2.85,1.38-3.71,2.84C.28,67.57,0,68.62,0,69.68v259.92c-.02,2.18,1.13,4.2,3.02,5.28l114.91,66.34c.95.56,1.99.82,3.02.82,2.07,0,4.09-1.08,5.24-3.03.53-.92.82-1.96.82-3.02v-116.8l101.16,58.39c2.85,1.68,6.54.72,8.26-2.21.54-.92.82-1.97.82-3.03V72.4c.01-2.18-1.16-4.2-3.05-5.26ZM220.43,215.59v98.12l-85-49.07,85-49.05ZM135.41,137.38l85-49.07v98.16l-85-49.09ZM127,122.83V24.68l85,49.07-85,49.08ZM212,201.01l-85,49.07v-98.14l85,49.07ZM110.21,279.21v98.12l-85-49.07,85-49.05ZM25.2,201l85-49.06v98.13l-85-49.07ZM16.79,186.45v-98.14l85,49.07-85,49.07ZM101.79,264.64l-85,49.06v-98.14l85,49.08Z"/>
    </g>
  </g>
</svg>